# xmcd CD database file
#
# Track frame offsets:
#	150
#	17407
#	35260
#	57267
#	77187
#	98757
#	118912
#	134357
#	153002
#	168845
#	188610
#
# Disc length: 2770 seconds
#
# Revision: 2
# Processed by: cddbd v1.5.2PL0 Copyright (c) Steve Scherf et al.
# Submitted via: CDex 1.51
#
DISCID=7c0ad00b
DTITLE=The Robert Cray Band - Don't Be Afraid Of The Dark
DYEAR=1900
DGENRE=Blues
TTITLE0=Don't Be Afraid Of The Dark
TTITLE1=Don't You Even Care?
TTITLE2=Your Secret's Safe With Me
TTITLE3=I Can't Go Home
TTITLE4=Night Patrol
TTITLE5=Acting This Way
TTITLE6=Gotta Change The Rules
TTITLE7=Across The Line
TTITLE8=At Last
TTITLE9=Laught Out Loud
TTITLE10=Without A Trace
EXTD=
EXTT0=
EXTT1=
EXTT2=
EXTT3=
EXTT4=
EXTT5=
EXTT6=
EXTT7=
EXTT8=
EXTT9=
EXTT10=
PLAYORDER=
